<mxfile host="65bd71144e">
    <diagram id="mNkiSAIas7GZMRnO53bA" name="Page-1">
        <mxGraphModel dx="1937" dy="823" grid="1" gridSize="10" guides="1" tooltips="1" connect="1" arrows="1" fold="1" page="1" pageScale="1" pageWidth="850" pageHeight="1100" math="0" shadow="0">
            <root>
                <mxCell id="0"/>
                <mxCell id="1" parent="0"/>
                <UserObject label="ROL" treeRoot="1" id="2">
                    <mxCell style="whiteSpace=wrap;html=1;align=center;treeFolding=1;treeMoving=1;newEdgeStyle={&quot;edgeStyle&quot;:&quot;elbowEdgeStyle&quot;,&quot;startArrow&quot;:&quot;none&quot;,&quot;endArrow&quot;:&quot;none&quot;};" vertex="1" parent="1">
                        <mxGeometry x="315" y="251" width="60" height="40" as="geometry"/>
                    </mxCell>
                </UserObject>
                <mxCell id="7" value="" style="edgeStyle=segmentEdgeStyle;endArrow=classic;html=1;curved=0;rounded=0;endSize=8;startSize=8;entryX=0.5;entryY=0;entryDx=0;entryDy=0;exitX=1;exitY=0.5;exitDx=0;exitDy=0;" edge="1" parent="1" source="2" target="2">
                    <mxGeometry width="50" height="50" relative="1" as="geometry">
                        <mxPoint x="385" y="271" as="sourcePoint"/>
                        <mxPoint x="335" y="191" as="targetPoint"/>
                        <Array as="points">
                            <mxPoint x="395" y="271"/>
                            <mxPoint x="395" y="221"/>
                            <mxPoint x="345" y="221"/>
                        </Array>
                    </mxGeometry>
                </mxCell>
                <mxCell id="10" value="USUARIO" style="whiteSpace=wrap;html=1;align=center;strokeColor=#fdfcfc;" vertex="1" parent="1">
                    <mxGeometry x="295" y="351" width="100" height="40" as="geometry"/>
                </mxCell>
                <mxCell id="14" value="" style="fontSize=12;html=1;endArrow=ERoneToMany;entryX=0.5;entryY=0;entryDx=0;entryDy=0;exitX=0.5;exitY=1;exitDx=0;exitDy=0;" edge="1" parent="1" source="2" target="10">
                    <mxGeometry width="100" height="100" relative="1" as="geometry">
                        <mxPoint x="365" y="281" as="sourcePoint"/>
                        <mxPoint x="455" y="401" as="targetPoint"/>
                    </mxGeometry>
                </mxCell>
                <mxCell id="18" style="edgeStyle=none;html=1;exitX=0;exitY=0.5;exitDx=0;exitDy=0;entryX=1;entryY=0.5;entryDx=0;entryDy=0;" edge="1" parent="1" source="15" target="10">
                    <mxGeometry relative="1" as="geometry">
                        <mxPoint x="435" y="371" as="targetPoint"/>
                        <Array as="points">
                            <mxPoint x="435" y="281"/>
                            <mxPoint x="435" y="371"/>
                        </Array>
                    </mxGeometry>
                </mxCell>
                <mxCell id="15" value="CREDENCIAL" style="whiteSpace=wrap;html=1;align=center;strokeColor=#fdfcfc;" vertex="1" parent="1">
                    <mxGeometry x="500" y="261" width="100" height="40" as="geometry"/>
                </mxCell>
                <mxCell id="20" value="RECORDATORIO" style="whiteSpace=wrap;html=1;align=center;strokeColor=#fdfcfc;" vertex="1" parent="1">
                    <mxGeometry x="635" y="181" width="110" height="39" as="geometry"/>
                </mxCell>
                <mxCell id="22" value="" style="fontSize=12;html=1;endArrow=ERoneToMany;entryX=0;entryY=0.5;entryDx=0;entryDy=0;exitX=0.5;exitY=0;exitDx=0;exitDy=0;" edge="1" parent="1" source="15" target="20">
                    <mxGeometry width="100" height="100" relative="1" as="geometry">
                        <mxPoint x="545" y="201" as="sourcePoint"/>
                        <mxPoint x="595" y="211" as="targetPoint"/>
                        <Array as="points">
                            <mxPoint x="550" y="201"/>
                        </Array>
                    </mxGeometry>
                </mxCell>
                <mxCell id="53" style="edgeStyle=none;html=1;exitX=0;exitY=0.5;exitDx=0;exitDy=0;" edge="1" parent="1" source="23" target="52">
                    <mxGeometry relative="1" as="geometry"/>
                </mxCell>
                <mxCell id="23" value="RECORDATORIO_CATALOGO" style="whiteSpace=wrap;html=1;align=center;strokeColor=#fdfcfc;" vertex="1" parent="1">
                    <mxGeometry x="607" y="91" width="170" height="40" as="geometry"/>
                </mxCell>
                <mxCell id="24" value="" style="fontSize=12;html=1;endArrow=ERoneToMany;entryX=0.5;entryY=0;entryDx=0;entryDy=0;" edge="1" parent="1">
                    <mxGeometry width="100" height="100" relative="1" as="geometry">
                        <mxPoint x="690" y="131" as="sourcePoint"/>
                        <mxPoint x="689.5" y="181" as="targetPoint"/>
                    </mxGeometry>
                </mxCell>
                <mxCell id="25" value="REG_INGRESO" style="whiteSpace=wrap;html=1;align=center;strokeColor=#fdfcfc;" vertex="1" parent="1">
                    <mxGeometry x="500" y="361" width="100" height="40" as="geometry"/>
                </mxCell>
                <mxCell id="26" value="" style="fontSize=12;html=1;endArrow=ERoneToMany;exitX=0.5;exitY=1;exitDx=0;exitDy=0;entryX=0.5;entryY=0;entryDx=0;entryDy=0;" edge="1" parent="1" source="15" target="25">
                    <mxGeometry width="100" height="100" relative="1" as="geometry">
                        <mxPoint x="549.5" y="301" as="sourcePoint"/>
                        <mxPoint x="550" y="361" as="targetPoint"/>
                    </mxGeometry>
                </mxCell>
                <mxCell id="27" value="FACTURA" style="whiteSpace=wrap;html=1;align=center;strokeColor=#fdfcfc;" vertex="1" parent="1">
                    <mxGeometry x="500" y="461" width="100" height="40" as="geometry"/>
                </mxCell>
                <mxCell id="28" value="" style="fontSize=12;html=1;endArrow=ERoneToMany;exitX=0.5;exitY=1;exitDx=0;exitDy=0;entryX=0.5;entryY=0;entryDx=0;entryDy=0;" edge="1" parent="1" source="25" target="27">
                    <mxGeometry width="100" height="100" relative="1" as="geometry">
                        <mxPoint x="549.5" y="401" as="sourcePoint"/>
                        <mxPoint x="550" y="461" as="targetPoint"/>
                    </mxGeometry>
                </mxCell>
                <mxCell id="29" value="FACTURA_DETALLE" style="whiteSpace=wrap;html=1;align=center;strokeColor=#fdfcfc;" vertex="1" parent="1">
                    <mxGeometry x="655" y="550" width="120" height="40" as="geometry"/>
                </mxCell>
                <mxCell id="30" value="FORMA_PAGO" style="whiteSpace=wrap;html=1;align=center;strokeColor=#fdfcfc;" vertex="1" parent="1">
                    <mxGeometry x="655" y="391" width="100" height="40" as="geometry"/>
                </mxCell>
                <mxCell id="31" value="" style="fontSize=12;html=1;endArrow=ERoneToMany;entryX=1;entryY=0.25;entryDx=0;entryDy=0;exitX=0.25;exitY=1;exitDx=0;exitDy=0;" edge="1" parent="1" source="30" target="27">
                    <mxGeometry width="100" height="100" relative="1" as="geometry">
                        <mxPoint x="705" y="471" as="sourcePoint"/>
                        <mxPoint x="635" y="491" as="targetPoint"/>
                        <Array as="points">
                            <mxPoint x="680" y="471"/>
                        </Array>
                    </mxGeometry>
                </mxCell>
                <mxCell id="32" value="" style="fontSize=12;html=1;endArrow=ERoneToMany;entryX=1;entryY=0.75;entryDx=0;entryDy=0;exitX=0.25;exitY=0;exitDx=0;exitDy=0;" edge="1" parent="1" source="29" target="27">
                    <mxGeometry width="100" height="100" relative="1" as="geometry">
                        <mxPoint x="695" y="491" as="sourcePoint"/>
                        <mxPoint x="600" y="491" as="targetPoint"/>
                        <Array as="points">
                            <mxPoint x="685" y="491"/>
                        </Array>
                    </mxGeometry>
                </mxCell>
                <mxCell id="34" value="CURSO_CATALOGO" style="whiteSpace=wrap;html=1;align=center;strokeColor=#fdfcfc;" vertex="1" parent="1">
                    <mxGeometry x="295" y="451" width="120" height="40" as="geometry"/>
                </mxCell>
                <mxCell id="36" value="CURSO" style="whiteSpace=wrap;html=1;align=center;strokeColor=#fdfcfc;" vertex="1" parent="1">
                    <mxGeometry x="295" y="551" width="100" height="40" as="geometry"/>
                </mxCell>
                <mxCell id="38" value="" style="fontSize=12;html=1;endArrow=ERoneToMany;entryX=0.5;entryY=0;entryDx=0;entryDy=0;exitX=0.5;exitY=1;exitDx=0;exitDy=0;" edge="1" parent="1">
                    <mxGeometry width="100" height="100" relative="1" as="geometry">
                        <mxPoint x="344.5" y="491" as="sourcePoint"/>
                        <mxPoint x="344.5" y="551" as="targetPoint"/>
                    </mxGeometry>
                </mxCell>
                <mxCell id="39" value="" style="fontSize=12;html=1;endArrow=ERoneToMany;entryX=0;entryY=0.5;entryDx=0;entryDy=0;exitX=1;exitY=0.25;exitDx=0;exitDy=0;" edge="1" parent="1" source="36" target="27">
                    <mxGeometry width="100" height="100" relative="1" as="geometry">
                        <mxPoint x="445" y="561" as="sourcePoint"/>
                        <mxPoint x="499" y="491" as="targetPoint"/>
                        <Array as="points">
                            <mxPoint x="445" y="561"/>
                            <mxPoint x="445" y="481"/>
                        </Array>
                    </mxGeometry>
                </mxCell>
                <mxCell id="40" value="" style="fontSize=12;html=1;endArrow=ERoneToMany;exitX=1;exitY=0.5;exitDx=0;exitDy=0;entryX=0;entryY=0.5;entryDx=0;entryDy=0;" edge="1" parent="1" source="36" target="29">
                    <mxGeometry width="100" height="100" relative="1" as="geometry">
                        <mxPoint x="655" y="511" as="sourcePoint"/>
                        <mxPoint x="655" y="571" as="targetPoint"/>
                    </mxGeometry>
                </mxCell>
                <mxCell id="41" value="" style="fontSize=12;html=1;endArrow=ERoneToMany;entryX=0.098;entryY=0.02;entryDx=0;entryDy=0;exitX=0;exitY=0.5;exitDx=0;exitDy=0;entryPerimeter=0;" edge="1" parent="1" source="10" target="36">
                    <mxGeometry width="100" height="100" relative="1" as="geometry">
                        <mxPoint x="255" y="371" as="sourcePoint"/>
                        <mxPoint x="305" y="550" as="targetPoint"/>
                        <Array as="points">
                            <mxPoint x="255" y="371"/>
                            <mxPoint x="255" y="511"/>
                            <mxPoint x="305" y="511"/>
                        </Array>
                    </mxGeometry>
                </mxCell>
                <mxCell id="42" value="CURSO_NOMBRE" style="whiteSpace=wrap;html=1;align=center;strokeColor=#fdfcfc;" vertex="1" parent="1">
                    <mxGeometry x="115" y="551" width="110" height="40" as="geometry"/>
                </mxCell>
                <mxCell id="43" value="" style="fontSize=12;html=1;endArrow=ERoneToMany;exitX=0;exitY=0.5;exitDx=0;exitDy=0;entryX=1;entryY=0.5;entryDx=0;entryDy=0;" edge="1" parent="1" source="36" target="42">
                    <mxGeometry width="100" height="100" relative="1" as="geometry">
                        <mxPoint x="345" y="340" as="sourcePoint"/>
                        <mxPoint x="265" y="550" as="targetPoint"/>
                    </mxGeometry>
                </mxCell>
                <mxCell id="44" value="" style="fontSize=12;html=1;endArrow=ERoneToMany;entryX=0;entryY=0.75;entryDx=0;entryDy=0;exitX=0;exitY=0;exitDx=0;exitDy=0;" edge="1" parent="1" source="10" target="42">
                    <mxGeometry width="100" height="100" relative="1" as="geometry">
                        <mxPoint x="75" y="360" as="sourcePoint"/>
                        <mxPoint x="355" y="410" as="targetPoint"/>
                        <Array as="points">
                            <mxPoint x="75" y="350"/>
                            <mxPoint x="75" y="581"/>
                        </Array>
                    </mxGeometry>
                </mxCell>
                <mxCell id="45" value="" style="fontSize=12;html=1;endArrow=ERoneToMany;entryX=0.5;entryY=0;entryDx=0;entryDy=0;exitX=0;exitY=0.25;exitDx=0;exitDy=0;" edge="1" parent="1" source="10">
                    <mxGeometry width="100" height="100" relative="1" as="geometry">
                        <mxPoint x="95" y="370" as="sourcePoint"/>
                        <mxPoint x="115" y="570" as="targetPoint"/>
                        <Array as="points">
                            <mxPoint x="95" y="361"/>
                            <mxPoint x="95" y="570"/>
                        </Array>
                    </mxGeometry>
                </mxCell>
                <mxCell id="48" value="SOPORTE" style="whiteSpace=wrap;html=1;align=center;strokeColor=#fdfcfc;" vertex="1" parent="1">
                    <mxGeometry x="165" y="240" width="100" height="40" as="geometry"/>
                </mxCell>
                <mxCell id="49" value="" style="fontSize=12;html=1;endArrow=ERoneToMany;entryX=0.5;entryY=1;entryDx=0;entryDy=0;exitX=0.25;exitY=0;exitDx=0;exitDy=0;" edge="1" parent="1" source="10" target="48">
                    <mxGeometry width="100" height="100" relative="1" as="geometry">
                        <mxPoint x="315" y="350" as="sourcePoint"/>
                        <mxPoint x="385" y="440" as="targetPoint"/>
                        <Array as="points">
                            <mxPoint x="320" y="310"/>
                            <mxPoint x="215" y="310"/>
                        </Array>
                    </mxGeometry>
                </mxCell>
                <mxCell id="50" value="SOPORTE_CATALOGO" style="whiteSpace=wrap;html=1;align=center;strokeColor=#fdfcfc;" vertex="1" parent="1">
                    <mxGeometry x="143" y="110" width="145" height="40" as="geometry"/>
                </mxCell>
                <mxCell id="51" value="" style="fontSize=12;html=1;endArrow=ERoneToMany;entryX=0.5;entryY=0;entryDx=0;entryDy=0;exitX=0.5;exitY=1;exitDx=0;exitDy=0;" edge="1" parent="1" source="50" target="48">
                    <mxGeometry width="100" height="100" relative="1" as="geometry">
                        <mxPoint x="209.29" y="91" as="sourcePoint"/>
                        <mxPoint x="209.29" y="151" as="targetPoint"/>
                    </mxGeometry>
                </mxCell>
                <mxCell id="52" value="1.&amp;nbsp; Nombre_Ex&lt;br&gt;2. Nombre_Perro&lt;br&gt;3. Comida Favorita" style="text;html=1;align=center;verticalAlign=middle;resizable=0;points=[];autosize=1;strokeColor=none;fillColor=none;" vertex="1" parent="1">
                    <mxGeometry x="435" y="81" width="120" height="60" as="geometry"/>
                </mxCell>
                <mxCell id="54" value="PROFESOR" style="text;html=1;align=center;verticalAlign=middle;resizable=0;points=[];autosize=1;strokeColor=none;fillColor=none;" vertex="1" parent="1">
                    <mxGeometry x="-5" y="535" width="90" height="30" as="geometry"/>
                </mxCell>
                <mxCell id="56" value="ESTUDIANTE" style="text;html=1;align=center;verticalAlign=middle;resizable=0;points=[];autosize=1;strokeColor=none;fillColor=none;" vertex="1" parent="1">
                    <mxGeometry x="85" y="491" width="100" height="30" as="geometry"/>
                </mxCell>
                <mxCell id="59" value="idU_Profesor" style="text;html=1;align=center;verticalAlign=middle;resizable=0;points=[];autosize=1;strokeColor=none;fillColor=none;" vertex="1" parent="1">
                    <mxGeometry x="295" y="595" width="90" height="30" as="geometry"/>
                </mxCell>
                <mxCell id="61" value="idU_Alumno" style="text;html=1;align=center;verticalAlign=middle;resizable=0;points=[];autosize=1;strokeColor=none;fillColor=none;" vertex="1" parent="1">
                    <mxGeometry x="505" y="501" width="90" height="30" as="geometry"/>
                </mxCell>
                <mxCell id="62" value="idU_Administrador" style="text;html=1;align=center;verticalAlign=middle;resizable=0;points=[];autosize=1;strokeColor=none;fillColor=none;" vertex="1" parent="1">
                    <mxGeometry x="210" y="181" width="120" height="30" as="geometry"/>
                </mxCell>
            </root>
        </mxGraphModel>
    </diagram>
</mxfile>